<?xml version="1.0" encoding="utf-8"?>
<!-- Generator: Adobe Illustrator 21.0.0, SVG Export Plug-In . SVG Version: 6.00 Build 0)  -->
<svg version="1.1" id="Layer_1" xmlns="http://www.w3.org/2000/svg" xmlns:xlink="http://www.w3.org/1999/xlink" x="0px" y="0px"
	 viewBox="0 0 420.6 708.7" style="enable-background:new 0 0 420.6 708.7;" xml:space="preserve">
<g>
	<path d="M396.2,17.9L329.3,3.4C319,1.2,308.4,0,297.9,0H122.7c-10.5,0-21.1,1.2-31.4,3.4L24.4,17.9C10.3,20.9,0,34.7,0,50.5v600.6
		c0,14.9,9.2,28.1,22.2,32.1l63.3,19.2c14.1,4.3,28.6,6.4,43.2,6.4H292c14.6,0,29.1-2.2,43.2-6.4l63.3-19.2
		c13.1-4,22.2-17.2,22.2-32.1V50.5C420.6,34.7,410.4,20.9,396.2,17.9z M297.9,8.7c4.7,0,9.4,0.3,14.1,0.7V104
		c-0.4-0.4-0.7-0.8-1.1-1.1c-27-26.9-62.7-41.7-100.5-41.7s-73.5,14.9-100.5,41.7c-0.5,0.5-0.9,0.9-1.3,1.3V9.4
		c4.7-0.5,9.4-0.7,14.1-0.7L297.9,8.7L297.9,8.7z M306.4,299.4c-25.7,25.7-59.7,39.7-96.2,39.7s-70.5-14.2-96.2-39.7
		c-25.7-25.7-39.7-59.9-39.7-96s14.2-70.4,39.7-96.2c25.7-25.7,59.9-39.7,96.2-39.7c36.2,0,70.4,14.2,96.2,39.7
		c25.7,25.9,39.7,59.9,39.7,96.2C346.2,239.6,332.1,273.8,306.4,299.4z M24.7,674.8c-9.5-2.9-16.1-12.6-16.1-23.8V50.5
		c0-11.8,7.4-22,17.6-24.2l66.9-14.5c3.7-0.8,7.4-1.5,11.2-2v99c-23.3,26.1-36.1,59.3-36.1,94.4c0,35.3,12.8,68.5,36.1,94.6v400.1
		c-5.5-1-11-2.3-16.3-3.9L24.7,674.8z M128.7,700c-6.7,0-13.4-0.5-20-1.5V302.4c0.5,0.5,0.9,0.9,1.3,1.3
		c27,26.9,62.7,41.7,100.5,41.7S284,330.5,311,303.7c0.4-0.4,0.7-0.8,1.1-1.1v396c-6.7,1-13.3,1.5-20,1.5H128.7z M412,651.1
		c0,11.1-6.6,20.9-16.1,23.8L332.6,694c-5.4,1.7-10.8,2.9-16.3,3.9V298c23.4-26.1,36.3-59.4,36.3-94.8c0-35.2-12.9-68.5-36.3-94.6
		V9.9c3.8,0.5,7.5,1.2,11.2,2l66.9,14.5c10.2,2.2,17.6,12.4,17.6,24.2L412,651.1L412,651.1z" stroke="black" stroke-width="3"/>
	<path d="M298.8,114.9c-22.6-22.6-53.9-36.6-88.4-36.6s-65.8,13.9-88.4,36.6c-6.7,6.7-12.4,14-17.4,22v-0.1l-1.7,2.8
		c-0.2,0.4-0.4,0.5-0.5,0.7l-0.4,0.6c-0.2,0.4-0.3,0.5-0.3,0.7l-0.4,0.7l-0.5,0.6l-0.4,0.7c-0.2,0.4-0.4,0.7-0.5,0.8l-0.4,0.5
		l-0.4,0.7l-0.2,0.1l-0.2,0.4H99c-0.2,0.4-0.4,0.6-0.4,0.8l-0.4,0.5c-0.2,0.4-0.4,0.7-0.4,0.8l-0.3,0.7c-0.2,0.4-0.4,0.5-0.4,0.6
		l-0.4,0.7l-0.4,0.8l0,0.4c-0.2,0.4-0.3,0.7-0.3,1l-0.4,0.4c-0.2,0.4-0.4,0.6-0.4,1l-0.4,0.6l-0.3,0.7l-0.4,0.7l-0.4,0.8l-0.2,0.4
		v0.1c-0.2,0.4-0.4,0.7-0.5,1l-0.2,0.4c-0.2,0.4-0.3,0.7-0.3,1l-0.2,0.4v0.1c-0.2,0.4-0.3,0.7-0.3,1l-0.2,0.1l-0.2,0.4v1.5l-0.2,0.4
		l-0.2,0.2c-0.2,0.4-0.2,0.6-0.3,1l-0.2,0.1l-0.2,0.4v0.1l-0.2,0.4l-0.2,0.4l-0.2,0.4l-0.2,0.5c-0.2,0.4-0.2,0.5-0.4,0.7l0.4,0.6
		v0.2c-0.2,0.4-0.4,0.6-0.4,1.2l-0.2,0.5c-0.2,0.4-0.4,0.7-0.4,1l-0.2,0.4c-0.2,0.4-0.4,0.6-0.4,1.2l-0.2,0.4
		c-1.8,6.9-3.1,13.7-3.8,20.9v0.1C85,196.7,85,200.4,85,204c0,4.4,0.2,8.3,0.7,12.6v0.4v0.7l0.2,0.1c0,0.4,0,0.7,0.2,1.2v0.5v0.1
		c0.2,0.4,0.2,0.7,0.2,1.2l0.2,0.4v0.1c0,0.4,0.2,0.7,0.2,1.2v0.1l0.2,0.4l0.2,0.8v0.4v0.1c0.2,0.4,0.2,0.7,0.3,1.2v0.4
		c2.3,12.9,6.4,25.1,12.2,36.1h0.2c0.2,0.4,0.4,0.6,0.5,1.1l0.4,0.4v0.1c0.2,0.1,0.4,0.5,0.5,0.8l0.4,0.5l0.4,0.7l0.3,0.4l0.2,0.1
		c0.2,0.4,0.3,0.6,0.5,1l0.4,0.4v0.1c0.3,0.1,0.3,0.5,0.5,0.6l1.7,2.8v-0.1c5.1,8,10.9,15.3,17.4,22c22.6,22.6,53.9,36.8,88.4,36.8
		s65.8-14,88.4-36.8c22.6-22.6,36.6-53.9,36.6-88.4C335.4,168.9,321.4,137.7,298.8,114.9z M318,143.6c3.9,6.9,7,14.2,9.5,21.7
		c2.8,8.3,4.6,16.8,5.4,25.6H318L318,143.6L318,143.6z M102.7,143.6v47.4H87.9C89.7,173.7,94.7,157.9,102.7,143.6z M102.7,263.1
		c-7.7-13.7-12.9-29-14.7-45.4h14.7V263.1z M327.2,242.3c-2.5,7.3-5.6,14.3-9.3,20.9v-45.4h14.8C331.8,226.2,330,234.5,327.2,242.3z
		 M317.2,215.8v0.1h-0.8v0.8v49.8c-5.2,8.8-11.6,16.8-18.7,24.1c-22.5,22.3-53.2,36.1-87.2,36.1s-64.9-13.9-87.2-36.1
		c-7.2-7.3-13.4-15.5-18.7-24.1v-49.7v-0.8h-0.8h-16c-0.4-4.3-0.7-8.3-0.7-12.6c0-3.6,0.3-7.3,0.5-10.9h16.1h0.8v-0.8v-51.5
		c5.2-8.8,11.6-16.9,18.7-24.1c22.3-22.5,53.2-36.1,87.2-36.1s64.8,13.9,87.2,36.1c7.2,7.2,13.4,15.2,18.7,24.1v51.3v0.8h0.8h16
		c0.2,3.6,0.5,7.3,0.5,10.9c0,4.4-0.1,8.3-0.7,12.6L317.2,215.8L317.2,215.8z" stroke="black" stroke-width="3"/>
	<circle cx="147.3" cy="203.4" r="17.9" stroke="black" stroke-width="2"/>
	<circle cx="273.6" cy="203.4" r="17.9" stroke="black" stroke-width="2"/>
	<circle cx="210.3" cy="612.7" r="31.2" stroke="black" stroke-width="2"/>
	<path d="M264.2,423.4c0.5,0,0.9,0,1.4,0c0-0.8,0-1.4,0-2c-36.8,0-73.6,0-110.4,0c-2.3,0.5-4.3,1.5-5.9,3.2c-1.3,1.5-2,3.2-2.4,5.1
		c0,4.9,0,9.8,0,14.7c0.6,0,1.3,0,1.9,0c0-0.4,0.1-0.5,0.1-0.8c0-4,0-7.9,0-11.9c0-0.8,0.1-1.6,0.2-2.4c0.8-3.5,4-5.9,7.7-5.9
		C192.6,423.4,228.4,423.4,264.2,423.4z" stroke="black" stroke-width="1"/>
	<path d="M271.9,427.2c0,0.4,0,0.8,0,1.1c0,4.1,0,8.2,0,12.3c0,3.6-2.4,6.5-5.8,7.3c-0.9,0.2-1.9,0.2-2.8,0.2c-0.7,0-1.3,0-2,0v2
		c0.1,0,0.2,0,0.3,0c1,0,2.1,0,3.1,0c5-0.1,9.2-4.5,9.2-9.5c0-4.2,0-8.3,0-12.4c0-0.4,0-0.7,0-1
		C273.1,427.2,272.6,427.2,271.9,427.2z" stroke="black" stroke-width="1"/>
	<path d="M197.3,448c-13.6,0-27.1,0-40.7,0c-0.4,0-1,0-1.5,0c0,0.8,0,1.3,0,2c0.5,0,1,0,1.4,0c13.6,0,27.2,0,40.7,0L197.3,448
		L197.3,448z" stroke="black" stroke-width="1"/>
	<path d="M188.9,444.3c-0.1-5.7-0.3-11.4-0.4-17.1c-1.8,0-3.5,0-5.2,0c-1.3,2.9-2.6,5.8-4,8.8c-0.5-3-1-5.9-1.5-8.8
		c-1.8,0-3.5,0-5.2,0c-1.8,5.7-3.5,11.4-5.3,17.1c1.6,0,3.1,0,4.6,0c1-3.4,2-6.7,3-10.3c0.7,3.6,1.4,6.9,2,10.3c1.1,0,1.9,0,2.9,0
		c1.6-3.4,3.2-6.8,4.8-10.2c0.1,0,0.1,0,0.1,0c0,3.4,0,6.7,0,10.1C186,444.3,187.4,444.3,188.9,444.3z" stroke="black" stroke-width="1"/>
	<path d="M218.3,427.2c-1.7,0-3.1,0-4.7,0c-0.6,3.5-1.1,6.9-1.6,10.5c-1.6-3.6-3-7.1-4.5-10.6c-1.8,0-3.6,0-5.4,0
		c-0.9,5.7-1.8,11.4-2.7,17.2c1.7,0,3.2,0,4.7,0c0.5-3.6,1-7.2,1.6-10.8c1.6,3.7,3.2,7.3,4.7,10.9c1.7,0,3.4,0,5.2,0
		C216.5,438.6,217.4,432.9,218.3,427.2z" stroke="black" stroke-width="1"/>
	<path d="M243.3,444.3c1.8,0,3.4,0,5.2,0c0.9-5.7,1.8-11.4,2.7-17.2c-1.7,0-3.1,0-4.7,0c-0.6,3.5-1.1,6.9-1.6,10.5
		c-1.6-3.6-3.1-7.1-4.5-10.5c-1.8,0-3.5,0-5.4,0c-0.9,5.8-1.8,11.4-2.7,17.2c1.6,0,3.1,0,4.7,0c0.5-3.6,1.1-7.2,1.6-10.8
		C240.2,437.2,241.7,440.7,243.3,444.3z" stroke="black" stroke-width="1"/>
	<path d="M165.8,440.5c-1.8,0-3.5,0-5.3,0c0.1-1,0.3-1.9,0.5-2.8c1.7,0,3.3,0,5,0c0.2-1.3,0.4-2.5,0.6-3.8c-1.8,0-3.3,0-5,0
		c0.1-1,0.3-1.8,0.5-2.8c1.8,0,3.6,0,5.4,0c0.2-1.4,0.4-2.6,0.6-4c-3.4,0-6.7,0-10.1,0c-0.9,5.7-1.8,11.4-2.7,17.2c3.4,0,6.7,0,10,0
		C165.4,443,165.6,441.8,165.8,440.5z" stroke="black" stroke-width="1"/>
	<path d="M231.3,431.1c0.2-1.4,0.4-2.6,0.6-4c-3.4,0-6.6,0-10,0c-0.9,5.8-1.8,11.4-2.7,17.1c3.4,0,6.7,0,10.1,0
		c0.2-1.3,0.4-2.5,0.6-3.9c-1.8,0-3.5,0-5.4,0c0.1-1,0.3-1.9,0.4-2.8c1.7,0,3.3,0,5,0c0.2-1.3,0.4-2.5,0.6-3.8c-1.7,0-3.3,0-5,0
		c0.1-1,0.3-1.8,0.4-2.8C227.8,431.1,229.5,431.1,231.3,431.1z" stroke="black" stroke-width="1"/>
	<path d="M265.6,427.2c-4.2,0-8.2,0-12.3,0c-0.2,1.3-0.4,2.6-0.7,4c1.3,0,2.5,0,3.9,0c-0.7,4.5-1.4,8.8-2.1,13.2c1.7,0,3.2,0,4.7,0
		c0.7-4.4,1.4-8.7,2.1-13.2c1.2,0,2.5,0,3.7,0C265.2,429.8,265.4,428.5,265.6,427.2z" stroke="black" stroke-width="1"/>
	<path d="M195.7,444.3c0.9-5.7,1.8-11.4,2.8-17.1c-1.7,0-3.2,0-4.8,0c-0.9,5.7-1.8,11.4-2.8,17.1
		C192.6,444.3,194.1,444.3,195.7,444.3z" stroke="black" stroke-width="1"/>
	<path d="M229.1,448.2c-0.6,1.5-1.3,2.9-2,4.4h-0.1c-0.6-1.5-1.2-2.9-1.8-4.4c-0.4,0-0.9,0-1.4,0c-0.1,2.3-0.3,4.6-0.5,6.9
		c0.4,0,0.8,0,1.2,0c0.1-1.7,0.2-3.3,0.4-4.9c0.1,0,0.1,0,0.1,0c0.7,1.7,1.3,3.3,1.9,5h0.1c0.8-1.7,1.6-3.4,2.3-5.1
		c0.1,0,0.1,0,0.1,0c0.1,1.7,0.2,3.3,0.3,5c0.4,0,0.8,0,1.2,0c-0.1-2.3-0.4-4.6-0.5-6.9C229.9,448.2,229.5,448.2,229.1,448.2z" stroke="black" stroke-width="1"/>
	<path d="M219.1,455.2c1.9,0,3.3-1.6,3.3-3.7c0-2-1.5-3.6-3.4-3.6c-1.9,0-3.4,1.6-3.4,3.6C215.7,453.6,217.2,455.2,219.1,455.2z
		 M217.5,449.9c0.9-1.3,2.7-1.1,3.3,0.4c0.2,0.5,0.3,0.9,0.3,1.4c0,0.6-0.2,1.3-0.6,1.8c-0.9,1-2.5,0.9-3.1-0.4
		C216.8,452,216.8,450.9,217.5,449.9z" stroke="black" stroke-width="1"/>
	<path d="M235.1,455.2c1.8,0,3.4-1.6,3.4-3.5c0.1-2.1-1.4-3.7-3.3-3.7c-1.9,0-3.4,1.6-3.4,3.6C231.7,453.6,233.2,455.2,235.1,455.2z
		 M233.6,449.9c0.9-1.3,2.7-1.1,3.3,0.4c0.2,0.5,0.3,0.9,0.3,1.3c0,0.8-0.2,1.4-0.7,1.9c-0.9,1-2.5,0.9-3.1-0.4
		C232.9,452,232.9,450.9,233.6,449.9z" stroke="black" stroke-width="1"/>
	<path d="M212.4,448.2c-0.9-0.1-1.7,0-2.6,0c-0.2,0-0.4,0-0.6,0c0,2.3,0,4.6,0,6.9c0.1,0,0.1,0,0.1,0c1,0,2.1,0,3.1-0.1
		c0.8,0,1.5-0.6,1.9-1.3c0.8-1.1,0.8-2.4,0.4-3.6C214.4,449,213.6,448.3,212.4,448.2z M213.5,452.9c-0.2,0.6-0.8,1-1.4,1
		c-0.5,0-1.1,0-1.6,0c0-1.6,0-3.2,0-4.8c0.1,0,0.1,0,0.1,0c0.4,0,1,0,1.4,0c0.8,0,1.3,0.5,1.6,1.3
		C213.9,451.3,213.8,452.1,213.5,452.9z" stroke="black" stroke-width="1"/>
	<path d="M255.3,447.9c-0.8,2.4-1.7,4.8-2.5,7.1c0.4,0,0.8,0,1.1,0c0.2-0.6,0.4-1.2,0.6-1.8c0.7,0,1.3,0,2,0
		c0.2,0.6,0.4,1.1,0.5,1.8c0.4,0,0.8,0,1.2,0c-0.8-2.4-1.6-4.8-2.3-7.1C255.7,447.9,255.5,447.9,255.3,447.9z M254.9,452.2
		c0.2-0.6,0.4-1.2,0.6-1.8c0.1,0,0.1,0,0.1,0c0.1,0.6,0.4,1.2,0.6,1.8C255.7,452.2,255.3,452.2,254.9,452.2z" stroke="black" stroke-width="1"/>
	<path d="M251.7,453.9c-0.6,0.2-1.3,0.3-1.9,0.1c-1.1-0.4-1.7-1.6-1.6-2.7c0.1-0.9,0.4-1.6,1.2-2c0.7-0.4,1.4-0.2,2.1,0
		c0.3,0.1,0.6,0.2,0.9,0.4c0.1-0.4,0.1-0.8,0.1-1.2c-0.7-0.4-2-0.5-2.8-0.4c-1.6,0.3-2.7,1.7-2.8,3.3c-0.1,1.3,0.4,2.4,1.5,3.1
		c1.1,0.8,2.3,0.8,3.5,0.5c0.2,0,0.4-0.1,0.6-0.2c-0.1-0.4-0.1-0.8-0.1-1.2C252.1,453.7,252,453.8,251.7,453.9z" stroke="black" stroke-width="1"/>
	<path d="M238.9,449.2c0.6,0,1.3,0,1.9,0c0,2,0,3.9,0,5.8c0.4,0,0.8,0,1.2,0c0-2,0-3.9,0-5.9c0.7,0,1.3,0,1.9,0c0-0.4,0-0.7,0-1.1
		c-1.7,0-3.3,0-5,0C238.9,448.5,238.9,448.9,238.9,449.2z" stroke="black" stroke-width="1"/>
	<path d="M201.9,452.3h3.1c0-0.1,0-0.2-0.1-0.3c-0.1-0.3-0.1-0.5-0.1-0.8c-0.1-0.9-0.5-1.5-1.2-1.7c-0.2,0-0.5-0.1-0.8-0.1h-0.1
		c-1,0-1.7,0.4-2,1.2c-0.4,0.9-0.5,1.8-0.2,2.7c0.2,0.8,0.7,1.2,1.3,1.6c0.6,0.2,1.3,0.2,1.7,0.1c0.4-0.1,0.8-0.2,1.2-0.5l-0.1-1.1
		c-0.1,0-0.1,0-0.1,0.1c-0.2,0.1-0.4,0.2-0.5,0.3c-0.5,0.2-1.1,0.5-1.7,0c-0.4-0.3-0.7-0.9-0.6-1.4v-0.1H201.9z M202.7,450.4
		c0.2,0,0.4,0,0.6,0c0.2,0,0.4,0.1,0.6,0.3c0.1,0.2,0.2,0.5,0.1,0.8v0.1h-2v-0.1C201.9,451,202.3,450.5,202.7,450.4z" stroke="black" stroke-width="1"/>
	<path d="M244.8,455.1c0.4,0,0.8,0,1.2,0c0-2.3,0-4.6,0-6.9c-0.4,0-0.8,0-1.2,0C244.8,450.5,244.8,452.8,244.8,455.1z" stroke="black" stroke-width="1"/>
	<path d="M207.9,453.3c0-0.4,0-0.7,0-1c-0.8,0-1.5,0-2.3,0c0,0.4,0,0.7,0,1C206.4,453.3,207.2,453.3,207.9,453.3z" stroke="black" stroke-width="1"/>
</g>
</svg>
