<?xml version="1.0" encoding="utf-8"?>
<!-- Generator: Adobe Illustrator 21.0.0, SVG Export Plug-In . SVG Version: 6.00 Build 0)  -->
<svg version="1.1" id="Layer_1" xmlns="http://www.w3.org/2000/svg" xmlns:xlink="http://www.w3.org/1999/xlink" x="0px" y="0px"
	 viewBox="0 0 1417.3 376.7" style="enable-background:new 0 0 1417.3 376.7;" xml:space="preserve">
<g>
	<path d="M1324.9,0c0,6.6,0,13.3,0,21.7c-5.9,0-10.9,0-15.8,0c-399.5,0-799.1,0-1198.6,0c-41.9,0-77.1,26.7-86,65.9
		c-2,8.7-2.5,17.8-2.5,26.7c-0.2,44.2-0.1,88.4-0.1,132.6c0,2.5-0.3,5-0.5,8.8c-7.4,0-14.3,0-21.3,0c0-54.5,0-109,0-163.4
		C4.2,71.4,12.1,52.2,26.5,36C44.2,16.1,66.7,5.4,92.3,0C503.2,0,914,0,1324.9,0z"/>
	<g>
		<path d="M1417.3,75.2c0-3.7-0.4-7.4-0.7-11.3c-7.6,0-14.2,0-21.4,0c-0.2,4.5-0.5,8.3-0.5,12.1c0,45.5,0.1,91-0.1,136.5
			c-0.2,39.4-26.3,72.7-64.6,81.5c-10.1,2.3-20.9,2.6-31.5,2.6c-7.2,0-14.4,0-21.6,0v22.5c1,0,2,0,3.1,0c11.5,0,23.1,0.2,34.6-0.1
			c56-1.5,102.6-49.4,102.7-105.3C1417.4,167.5,1417.3,121.3,1417.3,75.2z"/>
		<path d="M562.7,296.7c-151.4,0-302.8,0-454.3,0c-5.3,0-10.5,0-16.1,0c0,8.3,0,14.6,0,22.4c5.7,0,10.8,0,15.8,0
			c151.5,0,303.1,0,454.6,0V296.7z"/>
	</g>
	<path d="M464,63.8c1.5,64.2,3.1,127.2,4.6,191c-16.6,0-32,0-48.1,0c0-37.9,0-75.2,0-112.5c-0.4-0.2-0.8-0.4-1.2-0.6
		c-17.8,37.8-35.6,75.7-53.4,113.5c-10.8,0-20.6,0-32.1,0c-7.3-37.5-14.5-75-22.3-114.8c-11.4,39.5-22.1,76.7-32.9,114.5
		c-16.7,0-32.9,0-51,0c19.8-64.2,39.3-127.3,58.9-191c19.3,0,38,0,58.2,0c5.5,32.2,11.1,64.4,16.8,97.5
		c15.1-33.2,29.8-65.4,44.4-97.6C425.3,63.8,443.7,63.8,464,63.8z"/>
	<path d="M766.1,255.2c-20.1,0-38.6,0-57.8,0c-17.4-40-34.8-79.8-52.7-121.1c-5.8,40.9-11.5,80.5-17.2,120.7c-17.5,0-34.2,0-52.4,0
		c10.2-64.2,20.3-127.5,30.4-191.2c20.3,0,39.4,0,59.7,0c16.4,38.4,32.9,77.1,50.1,117.5c6.1-40.1,12-78.5,17.9-117.3
		c17.5,0,33.9,0,52.2,0C786.2,127.8,776.2,191.1,766.1,255.2z"/>
	<path d="M983.7,63.6c20.6,0,39.7,0,59.7,0c16.5,38.5,33,77,50.3,117.3c6.1-40,12-78.3,17.9-117.1c17.5,0,34,0,52.2,0
		c-10.2,64.1-20.3,127.4-30.4,191.2c-19.5,0-38,0-57.6,0c-17.4-39.8-34.9-79.8-52.9-120.8c-5.8,40.7-11.5,80.3-17.3,120.7
		c-17.5,0-34.2,0-52.3,0C963.5,190.8,973.5,127.7,983.7,63.6z"/>
	<path d="M122.3,63.7c37.7,0,74,0,112,0c-2.3,14.8-4.4,28.8-6.7,44.1c-19.9,0-39.3,0-59.6,0c-1.7,10.5-3.1,19.8-4.8,30.6
		c18.6,0,35.8,0,55.1,0c-2.4,14.9-4.5,28.1-6.9,42.6c-18.7,0-36.5,0-55.2,0c-1.7,10.5-3.2,19.8-5,31c20.4,0,39.1,0,59.4,0
		c-2.4,15.3-4.5,28.8-6.8,42.9c-37.3,0-73.9,0-111.9,0C102.1,190.7,112.2,127.3,122.3,63.7z"/>
	<path d="M836.5,63.8c37.9,0,74.3,0,111.8,0c-2.4,15-4.6,29-7,44c-19.9,0-39,0-59.3,0c-1.7,10.2-3.2,19.4-5,30.5
		c18.7,0,36.3,0,55.4,0c-2.3,14.9-4.4,28-6.6,42.2c-18.4,0-36.2,0-55.3,0c-1.8,10.5-3.3,20.1-5.2,31.4c20.3,0,39.3,0,59.6,0
		c-2.4,15.2-4.5,28.7-6.7,42.8c-37.2,0-73.8,0-112,0C816.3,191.1,826.4,127.8,836.5,63.8z"/>
	<path d="M1180.8,108.1c2.6-15.7,4.9-29.7,7.2-44.1c46,0,90.9,0,137,0c-2.5,15-4.9,29.1-7.5,44.2c-13.9,0-26.9,0-41,0
		c-7.9,49.3-15.6,97.5-23.4,146.6c-17.4,0-34.4,0-52.7,0c7.7-48.7,15.4-96.9,23.2-146.7C1208.6,108.1,1195.4,108.1,1180.8,108.1z"/>
	<path d="M521.5,63.9c18.2,0,35.3,0,53.5,0c-10.3,64.3-20.4,127.7-30.5,191.1c-18.3,0-35.1,0-53.5,0
		C501.3,190.9,511.4,127.6,521.5,63.9z"/>
</g>
<g>
	<path d="M936.1,374.9c-4.3,0-8.2,0-12.6,0c-1.1-18.3-2.2-36.6-3.3-55c-0.3-0.1-0.6-0.2-0.9-0.3c-8.5,18.8-17,37.5-25.6,56.3
		c-0.2,0-0.5,0-0.7,0c-7.1-18.6-14.2-37.1-21.3-55.7c-0.3,0-0.6,0-0.9,0c-1.3,18.1-2.6,36.1-3.9,54.5c-4.1,0-8.2,0-12.7,0
		c1.8-25.5,3.6-50.9,5.4-76.6c5.1,0,10,0,15.3,0c6.5,16.1,13.1,32.3,19.7,48.5c0.2,0,0.5,0,0.7,0c7.2-16.2,14.4-32.3,21.7-48.6
		c4.5,0,8.9,0,13.7,0C932.4,323.7,934.3,349.1,936.1,374.9z"/>
	<path d="M767.7,336.6c-0.1-22.5,16.4-40.3,37.4-40.4c20.7,0,37.1,17.5,37.2,40c0.1,22.5-16.2,40.3-37,40.5
		C784.3,376.8,767.8,359.2,767.7,336.6z M827.6,337.1c0.1-6.1-0.7-9.9-3.1-15.5c-6.7-15.7-27.3-18.1-36.6-4
		c-7.4,11.1-7.6,23.1-1.7,34.8c7.1,14.1,24.9,16.3,34.5,4.7C825.5,351.4,827.6,344.4,827.6,337.1z"/>
	<path d="M946.9,336.2c0.4-22.9,16.9-40.3,38-40c20.9,0.3,36.9,18.4,36.5,41.2c-0.4,22.2-17.3,39.8-37.6,39.3
		C962.7,376.1,946.6,358.4,946.9,336.2z M1006.8,336.1c0.2-4.7-1-9.6-3.1-14.4c-6.8-15.7-27.3-18.1-36.7-3.9
		c-7.4,11.1-7.6,23.1-1.7,34.8c7.1,14.1,24.9,16.3,34.5,4.7C1004.7,351.4,1006.9,344.4,1006.8,336.1z"/>
	<path d="M696.4,374.7c0-25.4,0-50.7,0-76.3c2.1-0.2,4.1-0.6,6.2-0.6c9.5,0,19-0.5,28.4,0.4c13,1.2,22.3,8.9,26.8,22
		c4.8,13.9,3.8,27.6-4.4,40.1c-5.2,7.8-12.5,12.9-21.4,13.7c-11.4,1-22.9,0.8-34.3,1C697.3,375,697,374.8,696.4,374.7z M709.8,363.2
		c6.1,0,11.9,0.5,17.6-0.1c7-0.8,12.8-4.6,15.7-11.7c3.7-8.9,4-18.2,0.7-27.4c-3-8.4-8.7-13.6-17.3-14.3c-5.2-0.4-10.5-0.1-15.8,0
		c-0.3,0-0.6,0.3-0.9,0.4C709.8,327.7,709.8,345.4,709.8,363.2z"/>
	<path d="M1242.4,374.9c-4.6,0-8.7,0-13.3,0c-2.1-6.5-4.3-13.1-6.4-19.6c-7.3,0-14.4,0-21.5,0c-2.3,6.6-4.5,13.1-6.7,19.6
		c-4.2,0-8.1,0-12.5,0c9.2-26.7,18.3-53.1,27.4-79.5c2.5,0,4.5,0,7.1,0C1225.1,321.6,1233.7,348.1,1242.4,374.9z M1212.7,322.5
		c-0.3,0-0.6,0.1-0.9,0.1c-2.1,6.6-4.2,13.2-6.4,20c4.7,0,8.7,0,13.2,0C1216.5,335.7,1214.6,329.1,1212.7,322.5z"/>
	<path d="M1178.4,372.2c-2.3,0.8-4.4,1.8-6.6,2.3c-13.4,3.1-26.6,3.2-38.6-5.3c-11.6-8.3-16.9-20.1-16-34.8
		c1.1-18.7,13.2-33.4,30.5-37c9.1-1.9,22.8-1,30.6,3.7c-0.2,4.1-0.5,8.4-0.8,13.1c-3.6-1.4-6.6-2.9-9.7-3.8
		c-7.7-2.2-15.5-3-22.9,0.8c-8.5,4.3-12.3,12.1-13.2,21.7c-1.2,12.7,4.8,25.7,17.2,30.1c7.1,2.5,14.2,1.4,21.1-1.1
		c2.4-0.9,4.6-1.9,7.5-3.1C1177.8,363.4,1178.1,367.5,1178.4,372.2z"/>
	<path d="M1047.5,309.8c-7.2,0-14,0-21,0c0-4.1,0-7.9,0-11.9c18.6,0,37,0,55.7,0c0,3.9,0,7.6,0,11.8c-7,0-13.8,0-21.1,0
		c0,21.9,0,43.4,0,65.1c-4.7,0-8.9,0-13.5,0C1047.5,353.2,1047.5,331.7,1047.5,309.8z"/>
	<path d="M614.1,344.2h34.4c-0.1-1.2-0.2-2.3-0.3-3.4c-0.3-3.1-0.5-6.1-0.9-9c-1.3-10.1-5.5-16.1-12.7-18.3
		c-2.5-0.8-5.2-1.2-8.1-1.2c-0.2,0-0.4,0-0.5,0c-10.8,0-18.2,4.5-22.5,13.8c-4.4,9.4-5.1,19.3-2.1,29.6c2.5,8.4,7.2,14.2,14.2,17.3
		c6.7,2.9,13.7,2.1,19.2,1.1c4.9-0.9,9-2.7,12.7-5.6l-1.2-13.1c-0.5,0.4-1.1,0.7-1.6,1.1c-1.9,1.3-3.7,2.6-5.5,3.5
		c-5.4,2.8-11.9,5.1-18.4,0.6c-4.8-3.3-7.7-10.1-6.7-15.5L614.1,344.2z M622.2,323c2.1-0.4,4.3-0.5,6.7-0.2c2.5,0.3,4.6,1.4,6,3.3
		c1.6,2.2,2.2,5.3,1.7,9.1l-0.1,0.9h-21.8l-0.1-0.9C614,329.4,617.6,323.9,622.2,323z"/>
	<path d="M1092,298.1c4.3,0,8.4,0,12.8,0c0,25.6,0,51.1,0,76.8c-4.3,0-8.4,0-12.8,0C1092,349.2,1092,323.8,1092,298.1z"/>
	<path d="M655.8,355.8c0-3.8,0-7.3,0-11.2c8.3,0,16.5,0,24.9,0c0,3.6,0,7.3,0,11.2C672.5,355.8,664.4,355.8,655.8,355.8z"/>
</g>
</svg>
