<?xml version="1.0" standalone="no"?>
<!DOCTYPE svg PUBLIC "-//W3C//DTD SVG 20010904//EN"
 "http://www.w3.org/TR/2001/REC-SVG-20010904/DTD/svg10.dtd">
<svg version="1.0" xmlns="http://www.w3.org/2000/svg"
 width="265.000000pt" height="398.000000pt" viewBox="0 0 265.000000 398.000000"
 preserveAspectRatio="xMidYMid meet">
<metadata>
Created by potrace 1.15, written by Peter Selinger 2001-2017
</metadata>
<g transform="translate(0.000000,398.000000) scale(0.100000,-0.100000)"
fill="#000000" stroke="none">
<path d="M799 3710 c-281 -25 -388 -107 -351 -267 10 -43 10 -43 -17 -43 -49
0 -113 -42 -138 -90 l-23 -43 0 -677 0 -677 23 -43 c26 -50 90 -90 144 -90
l33 0 3 -847 2 -848 3 848 2 847 25 0 25 0 3 -847 2 -848 3 848 2 847 100 0
100 0 3 -847 2 -848 3 848 2 847 25 0 25 0 3 -847 2 -848 3 848 2 847 100 0
100 0 3 -847 2 -848 3 848 2 847 25 0 25 0 3 -847 2 -848 3 848 2 847 100 0
100 0 3 -847 2 -848 3 848 2 847 25 0 25 0 3 -847 2 -848 3 848 2 847 474 0
c311 0 484 4 503 11 38 14 83 57 99 96 21 48 21 1358 0 1406 -16 39 -61 82
-99 96 -19 8 -309 11 -903 11 l-875 0 -16 37 c-20 49 -13 131 13 150 25 18
104 41 186 54 90 14 318 16 621 5 l247 -8 0 29 0 30 -172 7 c-342 13 -535 15
-629 6z m624 -16 c157 -7 167 -8 167 -27 0 -19 -6 -19 -242 -11 -297 11 -527
9 -616 -5 -90 -14 -165 -37 -192 -59 -30 -24 -38 -103 -17 -155 l16 -37 -30 0
c-25 0 -33 6 -46 37 -34 82 -4 162 78 203 127 66 306 76 882 54z m933 -330
c15 -11 37 -33 48 -48 21 -27 21 -36 21 -726 0 -690 0 -699 -21 -726 -11 -15
-33 -37 -48 -48 -26 -20 -41 -21 -422 -24 l-394 -3 0 231 0 230 -630 0 -630 0
0 507 c0 490 1 508 21 549 14 30 32 48 62 63 42 21 46 21 1004 19 954 -3 962
-3 989 -24z m-826 -1349 l0 -225 -562 0 c-547 0 -563 1 -604 21 -72 34 -84 73
-84 267 l0 162 625 0 625 0 0 -225z" stroke="black" stroke-width="3"/>
<path d="M1100 2791 c-23 -6 -25 -12 -28 -68 l-3 -62 38 -10 c41 -12 516 -13
568 -2 30 6 30 7 30 71 0 60 -2 65 -25 71 -33 9 -547 9 -580 0z m569 -7 c30
-6 31 -8 31 -64 l0 -57 -37 -7 c-51 -8 -521 -6 -553 3 -22 6 -25 13 -28 63 -3
52 -1 57 20 61 37 7 532 8 567 1z" stroke="black" stroke-width="3"/>
<path d="M444 2086 c-46 -46 -46 -86 0 -132 24 -24 43 -34 66 -34 44 0 100 56
100 100 0 44 -56 100 -100 100 -23 0 -41 -9 -66 -34z m127 -5 c20 -20 29 -39
29 -61 0 -43 -47 -90 -90 -90 -43 0 -90 47 -90 90 0 43 47 90 90 90 22 0 41
-9 61 -29z" stroke="black" stroke-width="3"/>
<path d="M714 2086 c-46 -46 -46 -86 0 -132 25 -24 43 -34 66 -34 44 0 100 56
100 100 0 44 -56 100 -100 100 -23 0 -41 -9 -66 -34z m127 -5 c20 -20 29 -39
29 -61 0 -43 -47 -90 -90 -90 -43 0 -90 47 -90 90 0 43 47 90 90 90 22 0 41
-9 61 -29z" stroke="black" stroke-width="3"/>
<path d="M984 2086 c-46 -46 -46 -86 0 -132 25 -24 43 -34 66 -34 44 0 100 56
100 100 0 44 -56 100 -100 100 -23 0 -41 -9 -66 -34z m127 -5 c20 -20 29 -39
29 -61 0 -43 -47 -90 -90 -90 -43 0 -90 47 -90 90 0 43 47 90 90 90 22 0 41
-9 61 -29z" stroke="black" stroke-width="3"/>
<path d="M1254 2086 c-46 -46 -46 -86 0 -132 25 -24 43 -34 66 -34 44 0 100
56 100 100 0 44 -56 100 -100 100 -23 0 -41 -9 -66 -34z m127 -5 c20 -20 29
-39 29 -61 0 -43 -47 -90 -90 -90 -43 0 -90 47 -90 90 0 43 47 90 90 90 22 0
41 -9 61 -29z" stroke="black" stroke-width="3"/>
</g>
</svg>
